<mxGraphModel dx="0" dy="0" grid="1" gridSize="10" guides="1" tooltips="1" connect="1" arrows="1" fold="1" page="0" pageScale="1" background="none" math="0" shadow="0">
  <root>
    <mxCell id="0" />
    <mxCell id="1" parent="0" />
    <mxCell id="node0" parent="1" vertex="1" value="&lt;p style=&quot;margin:0px;margin-top:4px;text-align:center;&quot;&gt;&lt;b&gt;transaction&lt;/b&gt;&lt;/p&gt;&lt;hr size=&quot;1&quot;/&gt;&lt;p style=&quot;margin:0 0 0 4px;line-height:1.6;&quot;&gt; transaction_id: text&lt;br/&gt; sender_account_no: bigint&lt;br/&gt; sender_bank: text&lt;br/&gt; transaction_date: date&lt;br/&gt; transaction_time: timestamp&lt;br/&gt; transaction_type: text&lt;br/&gt; status: text&lt;br/&gt; amount: bigint&lt;br/&gt; fee: double precision&lt;br/&gt; currency: text&lt;br/&gt; description: text&lt;br/&gt; rate: double precision&lt;/p&gt;" style="verticalAlign=top;align=left;overflow=fill;fontSize=14;fontFamily=Helvetica;html=1;rounded=0;shadow=0;comic=0;labelBackgroundColor=none;strokeWidth=1;">
      <mxGeometry x="-108" y="-163" width="217" height="327" as="geometry" />
    </mxCell>
  </root>
</mxGraphModel>